<svg height="68" viewBox="0 0 72 68" width="72" xmlns="http://www.w3.org/2000/svg"><path d="m69.783203.6748047c.5322266-.1303711 1.0703125.1972656 1.203125.7290039.0253907.0991211.6122437 2.4685059.8817139 5.8232422l.0188532.24018216c.48463 6.44782914-.2519878 17.32664614-9.8890924 21.01274754l2.0883789 5.5200195c.1655884.1188965.3049927.2711182.3728028.4663085l.46875 1.3393555c.7349853 2.1011963 1.486206 4.2409668 2.2437744 6.3492432l1.4525147 3.8392335c.4602051 1.2202148.709961 2.5224609.7402344 3.8256836.0131836.4230957.0032959.8475342-.03125 1.2729492-.003418.041748-.0181885.0800781-.0266724.1203613-.3568726 3.6087646-2.3987427 6.8645019-5.4909058 8.7243652-5.5068359 3.3242188-14.7529297 7.3095703-27.5244141 7.4140626-.1523437.0009765-.305664.0019531-.4580078.0019531-12.7216797 0-22.03125-3.9619141-27.6259766-7.3076172-3.1828002-1.907959-5.2521362-5.2510987-5.538269-8.9450684-.0359497-.4301758-.0466919-.8510742-.0340576-1.2705078.0375976-1.2561035.2852783-2.4990234.7402954-3.7072754 1.2421875-3.3007813 2.4775391-6.8320313 3.671875-10.2480469l.4931639-1.4086914c.7231445-2.0626221 1.4472656-4.1009522 2.1790771-6.1032715-9.4894409-3.8306885-10.0997924-14.802002-9.5882568-21.1350098.2697143-3.3553466.8564453-5.7250976.8818359-5.8242187.1328125-.5317383.671875-.8603516 1.203125-.7290039 13.6984253 3.2875976 17.5048828 9.1765136 18.5625 12.151123 3.2351074-2.2235107 6.921814-3.7060546 10.7529297-4.3049316 1.1474609-.1757813 2.3125-.2822266 3.4638672-.3178711.3857422-.015625.7705078-.0219726 1.1572266-.0146484 5.3239746.0452881 10.5747681 1.7751464 14.9763184 4.8806152.9277344-2.9189453 4.5440674-9.0084228 18.654541-12.3942871zm-33.9472653 9.5107421c-.2587891 0-.5136719.0063477-.7714844.0166016-1.0791016.0332031-2.1621094.1323242-3.2275391.2949219-3.984375.6230469-7.8076171 2.28125-11.0537109 4.7944336-1.09375.8457031-2.125 1.7924804-3.0664063 2.8139648l-.0015259.0018311c-.560791.6048584-1.0895385 1.2332764-1.5858154 1.8848877-1.4898681 1.9560547-2.6868896 4.1186524-3.5708618 6.4560547l-.6230469 1.6665039c-.5795288 1.5678711-1.1515503 3.1715088-1.7223511 4.7856445l11.3864136-5.2363281c3.2861328-1.5024414 7.1943359-.0776368 8.7080078 3.1787109.40625.8798828.6113281 1.7973633.6113281 2.7290039 0 1.3847656-.4570312 2.7612304-1.2861328 3.8745117-.7587891 1.0214844-1.9111328 1.7919922-3.3310547 2.2304688-7.3145142 2.255127-14.3757935 6.1175537-21.5688477 11.7756348.37854 2.8474121 2.0222778 5.3914794 4.5014648 6.8776855 5.4404297 3.2539063 14.5703125 7.1142578 27.0410156 7.0214844 12.3173828-.1005859 21.2138672-3.9316406 26.5078125-7.1279297 2.4303589-1.4614258 4.0631714-3.9714355 4.4707645-6.78125-7.1903687-5.6524658-14.2475586-9.5119629-21.5567017-11.765625-1.4199219-.4384766-2.5722657-1.2089844-3.3320313-2.2304688-.828125-1.1132812-1.2851563-2.4897461-1.2851563-3.8745117 0-.9316406.2050781-1.8491211.609375-2.7260742 1.5175781-3.2592773 5.4238281-4.6845703 8.7089844-3.1821289l11.0797119 5.095459-2.3814697-6.2946777c-1.1367188-3.0004883-2.8017579-5.7207031-4.9492188-8.0864258-.8847656-.9804688-1.8378906-1.8828125-2.8378906-2.6835938-4.3203125-3.5058594-9.7119141-5.4594727-15.1855469-5.5058594-.0966796-.0019531-.1923828-.0029297-.2880859-.0029297zm4.7822264 35.3173829c.5253906.1699219.8144531.7333984.6455077 1.258789-.6757812 2.0966797-2.8300781 3.5419922-5.2626953 3.5419922-.0332031 0-.0664062-.0009766-.1005859-.0009766-2.3789063-.0390625-4.5-1.4951172-5.1601563-3.5410156-.1689453-.5253907.1201172-1.0888672.6455078-1.2587891.5263672-.1650391 1.0888672.1201172 1.2587891.6455078.4003906 1.2431641 1.7529297 2.1289063 3.2890625 2.1542969.0214844.0009766.0439453.0009766.0654297.0009766 1.5488282 0 2.9560547-.8984375 3.3603516-2.1552734.1699219-.5253906.7363282-.8105469 1.2587891-.6455078zm-4.616211-8.5937501c2.5751953 0 4.5917969 1.3769531 4.5917969 3.1357422s-2.0166016 3.1367188-4.5917969 3.1367188-4.5917969-1.3779297-4.5917969-3.1367188 2.0166016-3.1357422 4.5917969-3.1357422zm-12.6044922-4.8071289c-.9472656 0-1.71875.7680664-1.71875 1.7119141 0 .944336.7714844 1.7124023 1.71875 1.7124023s1.71875-.7680664 1.71875-1.7124023c0-.9438477-.7714844-1.7119141-1.71875-1.7119141zm25.2089844 0c-.9472656 0-1.71875.7680664-1.71875 1.7119141 0 .9443359.7714844 1.7124023 1.71875 1.7124023s1.71875-.7680664 1.71875-1.7124023c0-.9438476-.7714844-1.7119141-1.71875-1.7119141zm21.348999-23.486084c-.1397095.0412598-.2861938.0812989-.4232788.1230469-.2467041.0751954-.487854.1516114-.7260742.2283936-.3440552.111084-.6793824.2237549-1.0061646.3377686-.223938.0783691-.4469604.1567383-.6630249.2363281-.3208618.1181641-.6296387.2382813-.9333496.3591309-.1972657.0784912-.3977662.1564942-.5879517.236084-.312439.1306152-.6094361.2631836-.9032593.3962402-.1585693.0717774-.3240356.1427002-.4772949.2150879-.3496094.1650391-.680481.3320313-1.0032959.4997559-.0807495.0419921-.1693115.0831298-.2484741.1252441-.3962402.2106934-.7712402.4228516-1.1276855.6358643-.0983887.0588379-.1862793.1177978-.2817993.1767578-.2507935.154663-.498169.3094482-.7293091.4644775-.1201172.0805664-.2307129.1610107-.3457031.2415771-.1907348.1334229-.3796997.2669678-.5566406.4001465-.1156006.0870361-.2247315.173584-.3346558.2602539-.1605835.1265869-.3178711.2529296-.4666748.37854-.1037598.0876465-.2040405.1748047-.3022461.2619629-.1403198.1242676-.2754516.2480469-.4049072.3708496-.0894165.0849609-.1782837.1696777-.2626953.2536621-.1253052.125-.2433472.2482911-.3579712.3710938-.0732422.0783691-.1485595.1572265-.2175903.2346191-.116272.1306152-.2232666.2585449-.328064.3857422-.0545654.0664063-.1133423.1337891-.164917.1992188-.1245728.1578369-.2384644.3120117-.3464966.4638672-.0220337.0310059-.0480347.0634766-.069458.0942383-.1276855.1833496-.2433471.3615723-.3486938.5341797-.0270996.0444336-.0488892.0858154-.074585.1293945-.0638428.1085205-.1245728.2149658-.1802369.3183593.2337647.2705078.4404297.5600585.6627808.838623.2215577.27771.4501343.5500489.6603394.8356934.2941894.3996582.5634765.8153076.8349609 1.2299805.1814575.2770996.3738404.546875.545105.8304443.2839355.4700928.538269.9578858.7937622 1.4454346.1291504.2463378.2728272.4838867.3945923.7346191.3626099.7463379.6957398 1.5095215.9923096 2.2922363l.3251953.8554688c7.6457519-2.9316407 9.0180053-11.102417 8.6634521-17.9943848zm-67.9118042-.0004882c-.3458862 6.789917.9822388 14.8479004 8.3655395 17.8693849l.2773438-.7412109c.3076782-.8132324.6538696-1.6047363 1.0309448-2.3774414.1271973-.2607422.2774048-.5070801.4124146-.7630615.2647095-.501831.5282593-1.0042724.8225708-1.4871826.1811523-.2973633.3847046-.5792236.5769653-.8691406.2797241-.421875.5568848-.8448486.8598633-1.2507324.2210083-.2958984.4613648-.5776367.6945801-.8649902.2286987-.2816162.440979-.5751953.6812744-.8482666-.0526123-.0902099-.1083374-.1821289-.1674194-.2762451l-.0859375-.1381836c-.1077271-.1655273-.2245484-.3359375-.3535767-.5114746-.0022583-.0029297-.0039673-.0058594-.0061646-.0087891-.1314698-.1785888-.2760621-.3625488-.4315186-.5500488-.0430908-.0520019-.0929566-.105957-.1380005-.1585693-.1155395-.1348877-.2342529-.270752-.3630371-.4093018-.0663452-.0712891-.1394043-.144165-.2094116-.2163086-.1195068-.123291-.2419433-.2470703-.3724365-.3725586-.0830689-.079834-.1712036-.1604004-.2589722-.2409668-.1322632-.121582-.2694092-.2437744-.4125366-.3666992-.0969239-.083252-.1966553-.1667481-.2987061-.2506104-.1500854-.1231689-.3079223-.2469482-.4694824-.3712158-.1091308-.0837402-.2180175-.1676026-.3325195-.251709-.1755982-.1289062-.3622437-.2583008-.5510254-.3876953-.1154175-.0791016-.2271729-.1582031-.3475342-.2373047-.2235718-.1469727-.4620972-.2937012-.7036133-.4404297-.1006469-.0610351-.1942749-.1223144-.2981567-.1833496-.3529663-.2075196-.7230835-.4141846-1.1141357-.6193848-.0595703-.03125-.1264648-.0618897-.1870117-.0930176-.3352661-.1728516-.6812744-.3447266-1.045166-.5148926-.1452026-.0678711-.302002-.1342774-.4519043-.2016602-.2937011-.131958-.5908813-.2634277-.9030151-.3929443-.1837158-.076294-.3770752-.151001-.5673218-.2263184-.2999268-.1186524-.6049195-.2364502-.9214478-.3525391-.2097168-.0769043-.4257812-.15271-.6429443-.2282715-.3216552-.1119385-.6519775-.2222901-.9903564-.3311768-.229004-.0737305-.4602662-.1469727-.6971436-.2192383-.1298828-.0395508-.2686768-.0773926-.401001-.1164551z" fill="#b9e981"/></svg>